- 
http://www.Speed.Cd      fast  and The Hottest Private Tracker on the net

   signup is open now

Please Seed back to make the speed Faster!!!

------------------nfo--------------------------
-[IMG]http://img580.imageshack.us/img580/4606/1593808h.jpg[/IMG]


[color=blue][size=5][b]Dolphin.Tale.2011.DVDRip.XVID.AC3.HQ.Hive-CM8[/b][/size][/color]


[b]Thx Hive

CM8 Doing It Right The First Time :D


Source: DVD-R

Encode:
DVD had great quality,added brightness,sharpness,rgb and denoise
got very nice, no need for a bdrip later on.
enjoy

Video: 720x400 @bitrate 1800 2pass
Audio: English AC3 5.1 @384
Sample: Yes, included
Subs: Yes, English in srt /subs[/b]
 
http://www.imdb.com/title/tt1564349/


General
Complete name                  : Dolphin.Tale.2011.DVDRip.XVID.AC3.HQ.Hive-CM8.avi
Format                         : AVI
Format/Info                    : Audio Video Interleave
File size                      : 1.72 GiB
Duration                       : 1h 52mn
Overall bit rate               : 2 191 Kbps
Writing application            : Nandub v1.0rc2
Writing library                : Nandub build 1853/release

Video
ID                             : 0
Format                         : MPEG-4 Visual
Format profile                 : Advanced Simple@L5
Format settings, BVOP          : 2
Format settings, QPel          : Yes
Format settings, GMC           : No warppoints
Format settings, Matrix        : Default (H.263)
Muxing mode                    : Packed bitstream
Codec ID                       : XVID
Codec ID/Hint                  : XviD
Duration                       : 1h 52mn
Bit rate                       : 1 798 Kbps
Width                          : 720 pixels
Height                         : 400 pixels
Display aspect ratio           : 16:9
Frame rate                     : 23.976 fps
Color space                    : YUV
Chroma subsampling             : 4:2:0
Bit depth                      : 8 bits
Scan type                      : Progressive
Compression mode               : Lossy
Bits/(Pixel*Frame)             : 0.260
Stream size                    : 1.42 GiB (82%)
Writing library                : XviD 1.2.1 (UTC 2008-12-04)

Audio
ID                             : 1
Format                         : AC-3
Format/Info                    : Audio Coding 3
Mode extension                 : CM (complete main)
Codec ID                       : 2000
Duration                       : 1h 52mn
Bit rate mode                  : Constant
Bit rate                       : 384 Kbps
Channel(s)                     : 6 channels
Channel positions              : Front: L C R, Side: L R, LFE
Sampling rate                  : 48.0 KHz
Bit depth                      : 16 bits
Compression mode               : Lossy
Delay relative to video        : 14ms
Stream size                    : 309 MiB (18%)
Alignment                      : Split accross interleaves
Interleave, duration           : 42 ms (1.00 video frame)
Interleave, preload duration   : 500 ms


Plot:
A story of the friendship between a boy and a dolphin whose tail was lost in a crab trap.


Cast:
Harry Connick Jr.    ...    Dr. Clay Haskett
Ashley Judd          ...    Lorraine Nelson
Nathan Gamble        ...    Sawyer Nelson
Kris Kristofferson   ...    Reed Haskett
Cozi Zuehlsdorff     ...    Hazel Haskett
Morgan Freeman       ...    Dr. Cameron McCarthy


[img]http://img839.imageshack.us/img839/9452/70453144.png[/img]
[img]http://img710.imageshack.us/img710/5386/dododo.png[/img]
[img]http://img267.imageshack.us/img267/6637/dodododo.png[/img]
[img]http://img684.imageshack.us/img684/3669/dododododo.png[/img]
[img]http://img85.imageshack.us/img85/9513/dodododododo.png[/img]
[img]http://img705.imageshack.us/img705/1382/dododododododo.png[/img]
[img]http://img854.imageshack.us/img854/2061/dodododododoodo.png[/img]



Greetz

ViSiON,SPK,SANTi,3LT0N,FUSiON,YanKeeS,MAGNET,THC,LKRG,Feel-Free,FANTASIA-PLAY,FANTASIA-M,FLAWL3SS,
WBZ,ZMG,BHRG,NOVA,D2U,Vik,Rapeseed,T0XiC,SAFC,goldadvance,MEMORY100,KaN1vE,Unevano,Pinnz,Wayne
Mr Hive,and most P2P groups
Great Work Guys :D

LOOKING FOR ANYTHING YOU WANT TO LOOK AND SOUND BETTER

CM8@hushmail.com